<svg height="362pt" viewBox="0 0 362 362.0009" width="362pt" xmlns="http://www.w3.org/2000/svg"><path d="m311 181c0 71.796875-58.203125 130-130 130s-130-58.203125-130-130 58.203125-130 130-130 130 58.203125 130 130zm0 0" fill="#e48e66"/><path d="m100.929688 284.921875-26.109376 35.429687-.25.339844-19.121093 25.949219-9.457031-54.589844zm0 0" fill="#6fe3ff"/><g fill="#63316d"><path d="m311.050781 0c-3.867187 0-7 3.132812-7 7v36.949219h-39.050781c-3.867188 0-7 3.136719-7 7 0 3.867187 3.132812 7 7 7h39.050781v39.050781c0 3.867188 3.132813 7 7 7 3.867188 0 7-3.132812 7-7v-39.050781h36.949219c3.867188 0 7-3.132813 7-7 0-3.863281-3.132812-7-7-7h-36.949219v-36.949219c0-3.867188-3.132812-7-7-7zm0 0"/><path d="m235.265625 17.820312c-18.730469-6.523437-38.429687-9.84375-58.265625-9.820312-97.597656 0-177 79.398438-177 177-.0273438 20.683594 3.582031 41.214844 10.664062 60.648438.84375 2.367187 2.894532 4.101562 5.367188 4.542968 2.476562.4375 4.996094-.480468 6.605469-2.410156 1.609375-1.933594 2.058593-4.578125 1.179687-6.933594-6.519531-17.894531-9.84375-36.800781-9.816406-55.847656 0-89.878906 73.121094-163 163-163 18.265625-.023438 36.40625 3.03125 53.65625 9.039062 2.363281.839844 5 .347657 6.902344-1.289062 1.902344-1.632812 2.785156-4.164062 2.3125-6.628906s-2.230469-4.488282-4.605469-5.300782zm0 0"/><path d="m84.394531 319.160156 22.171875-30.089844c1.660156-2.253906 1.816406-5.289062.394532-7.703124-1.425782-2.414063-4.152344-3.75-6.929688-3.386719l-54.941406 7.128906c-1.894532.242187-3.605469 1.25-4.738282 2.785156-1.132812 1.539063-1.585937 3.46875-1.261718 5.351563l9.460937 54.589844c.476563 2.761718 2.558594 4.972656 5.289063 5.617187 2.726562.644531 5.578125-.402344 7.242187-2.660156l15-20.355469c29.589844 20.65625 64.832031 31.679688 100.917969 31.5625 97.601562 0 177-79.398438 177-177 .046875-23.410156-4.585938-46.59375-13.621094-68.191406-.949218-2.328125-3.078125-3.972656-5.570312-4.300782-2.496094-.324218-4.976563.710938-6.492188 2.714844-1.519531 2.007813-1.847656 4.675782-.855468 6.988282 8.320312 19.886718 12.582031 41.234374 12.539062 62.789062 0 89.878906-73.121094 163-163 163-33.09375.105469-65.421875-9.960938-92.605469-28.839844zm-24.847656 10.117188-5.410156-31.226563 31.425781-4.078125-16.574219 22.496094zm0 0"/><path d="m177.195312 251.023438c-.066406 0-.128906-.007813-.195312-.007813-.0625 0-.128906.007813-.191406.007813-16.449219-.125-29.722656-13.484376-29.738282-29.933594 0-3.867188-3.132812-7-7-7-3.867187 0-7 3.132812-7 7 .027344 21.550781 15.660157 39.914062 36.929688 43.375v15.535156c0 3.867188 3.132812 7 7 7s7-3.132812 7-7v-15.535156c22.609375-3.648438 38.621094-24.054688 36.789062-46.882813-1.828124-22.828125-20.886718-40.417969-43.789062-40.421875-16.535156.003906-29.9375-13.398437-29.9375-29.933594-.003906-16.535156 13.402344-29.9375 29.933594-29.9375 16.535156 0 29.9375 13.40625 29.933594 29.941407 0 3.867187 3.136718 7 7 7 3.867187 0 7-3.132813 7-7-.023438-21.550781-15.65625-39.914063-36.929688-43.375v-13.855469c0-3.867188-3.132812-7-7-7s-7 3.132812-7 7v13.855469c-22.605469 3.648437-38.617188 24.054687-36.789062 46.882812 1.832031 22.828125 20.890624 40.417969 43.789062 40.421875 16.476562.023438 29.832031 13.359375 29.886719 29.835938.054687 16.476562-13.21875 29.898437-29.691407 30.027344zm0 0"/></g></svg>