<?xml version="1.0" encoding="iso-8859-1"?>
<!-- Generator: Adobe Illustrator 19.0.0, SVG Export Plug-In . SVG Version: 6.00 Build 0)  -->
<svg version="1.1" id="Capa_1" xmlns="http://www.w3.org/2000/svg" xmlns:xlink="http://www.w3.org/1999/xlink" x="0px" y="0px"
	 viewBox="0 0 511.733 511.733" style="enable-background:new 0 0 511.733 511.733;" xml:space="preserve">
<path style="fill:#FFD15C;" d="M450.998,511.733V244c-76.8-75.733-119.467-118.4-195.2-195.2
	c-75.733,75.733-118.4,118.4-195.2,195.2v267.733H450.998z"/>
<path style="fill:#F3705A;" d="M501.131,231.2l-220.8-220.8c-13.867-13.867-35.2-13.867-49.067,0l-220.8,220.8
	c-13.867,13.867-13.867,35.2,0,49.067s36.267,13.867,50.133,0l195.2-195.2l196.267,196.267c13.867,13.867,36.267,13.867,50.133,0
	l0,0C514.998,266.4,514.998,245.067,501.131,231.2z"/>
<g>
	<rect x="194.998" y="366.667" style="fill:#415A6B;" width="120.533" height="145.067"/>
	<circle style="fill:#415A6B;" cx="255.798" cy="247.2" r="75.733"/>
</g>
<circle style="fill:#8AD7F8;" cx="255.798" cy="247.2" r="53.333"/>
<g>
</g>
<g>
</g>
<g>
</g>
<g>
</g>
<g>
</g>
<g>
</g>
<g>
</g>
<g>
</g>
<g>
</g>
<g>
</g>
<g>
</g>
<g>
</g>
<g>
</g>
<g>
</g>
<g>
</g>
</svg>
